<svg width="18" height="18" viewBox="0 0 18 18" fill="none" xmlns="http://www.w3.org/2000/svg">
<path d="M11.4375 2.0625H6.5625C4.07722 2.0625 2.0625 4.07722 2.0625 6.5625V11.4375C2.0625 13.9228 4.07722 15.9375 6.5625 15.9375H11.4375C13.9228 15.9375 15.9375 13.9228 15.9375 11.4375V6.5625C15.9375 4.07722 13.9228 2.0625 11.4375 2.0625Z" stroke="#1B2428" stroke-width="1.5"/>
<path d="M5.25 11.133L6.9915 8.8155C7.0995 8.67346 7.25688 8.57711 7.4325 8.5455C7.60637 8.5125 7.7863 8.54539 7.93725 8.63775L9.636 9.71025C9.7935 9.80925 9.981 9.84225 10.1625 9.80325C10.345 9.76611 10.5058 9.65896 10.6103 9.50475L12.3593 6.867" stroke="#1B2428" stroke-width="1.5" stroke-linecap="round" stroke-linejoin="round"/>
<path d="M10.2622 7.2585L12.3592 6.867L12.75 8.96475" stroke="#1B2428" stroke-width="1.5" stroke-linecap="round" stroke-linejoin="round"/>
</svg>
