<svg width="14" height="14" viewBox="0 0 14 14" fill="none" xmlns="http://www.w3.org/2000/svg">
<path d="M6.99999 13.4167C3.75841 12.6963 1.16666 9.63784 1.16666 6.41667V2.91667L6.99999 0.583336L12.8333 2.91667V6.41667C12.8333 9.639 10.2416 12.6963 6.99999 13.4167ZM2.33332 3.5V6.41667C2.36666 7.76541 2.84103 9.06607 3.68384 10.1196C4.52665 11.1731 5.69146 11.9214 6.99999 12.25C8.30852 11.9214 9.47333 11.1731 10.3161 10.1196C11.1589 9.06607 11.6333 7.76541 11.6667 6.41667V3.5L6.99999 1.75L2.33332 3.5Z" fill="white"/>
<path d="M6.99999 6.41667C7.80541 6.41667 8.45832 5.76375 8.45832 4.95833C8.45832 4.15292 7.80541 3.5 6.99999 3.5C6.19457 3.5 5.54166 4.15292 5.54166 4.95833C5.54166 5.76375 6.19457 6.41667 6.99999 6.41667Z" fill="white"/>
<path d="M4.08334 8.75C4.37077 9.27403 4.79232 9.71224 5.30483 10.0197C5.81734 10.3272 6.40237 10.493 7.00001 10.5C7.59765 10.493 8.18268 10.3272 8.69519 10.0197C9.2077 9.71224 9.62925 9.27403 9.91668 8.75C9.90209 7.644 7.96718 7 7.00001 7C6.02759 7 4.09793 7.644 4.08334 8.75Z" fill="white"/>
</svg>
