<svg width="14" height="14" viewBox="0 0 14 14" fill="none" xmlns="http://www.w3.org/2000/svg">
<path d="M3.73333 2.77667C4.60269 1.9247 5.77313 1.45024 6.99033 1.45639C8.20754 1.46254 9.37313 1.9488 10.2338 2.8095C11.0945 3.6702 11.5808 4.8358 11.5869 6.053C11.5931 7.2702 11.1186 8.44065 10.2667 9.31L7.82483 11.7518C7.60605 11.9705 7.30936 12.0934 7 12.0934C6.69064 12.0934 6.39395 11.9705 6.17517 11.7518L3.73333 9.31C2.86702 8.44359 2.38033 7.26855 2.38033 6.04333C2.38033 4.81811 2.86702 3.64307 3.73333 2.77667Z" stroke="#1B2428" stroke-width="0.875" stroke-linejoin="round"/>
<path d="M7 7.79333C7.9665 7.79333 8.75 7.00983 8.75 6.04333C8.75 5.07683 7.9665 4.29333 7 4.29333C6.0335 4.29333 5.25 5.07683 5.25 6.04333C5.25 7.00983 6.0335 7.79333 7 7.79333Z" stroke="#1B2428" stroke-width="0.875" stroke-linecap="round" stroke-linejoin="round"/>
</svg>
