<svg width="14" height="14" viewBox="0 0 14 14" fill="none" xmlns="http://www.w3.org/2000/svg">
<path d="M1.75 2.91667V2.47917C1.63397 2.47917 1.52269 2.52526 1.44064 2.60731C1.35859 2.68936 1.3125 2.80064 1.3125 2.91667H1.75ZM12.25 2.91667H12.6875C12.6875 2.80064 12.6414 2.68936 12.5594 2.60731C12.4773 2.52526 12.366 2.47917 12.25 2.47917V2.91667ZM1.75 3.35417H12.25V2.47917H1.75V3.35417ZM11.8125 2.91667V9.91667H12.6875V2.91667H11.8125ZM11.0833 10.6458H2.91667V11.5208H11.0833V10.6458ZM2.1875 9.91667V2.91667H1.3125V9.91667H2.1875ZM2.91667 10.6458C2.51417 10.6458 2.1875 10.3192 2.1875 9.91667H1.3125C1.3125 10.3421 1.48151 10.7501 1.78235 11.051C2.08319 11.3518 2.49122 11.5208 2.91667 11.5208V10.6458ZM11.8125 9.91667C11.8125 10.3192 11.4858 10.6458 11.0833 10.6458V11.5208C11.5088 11.5208 11.9168 11.3518 12.2177 11.051C12.5185 10.7501 12.6875 10.3421 12.6875 9.91667H11.8125Z" fill="#1B2428"/>
<path d="M1.75 2.91667L7 8.16667L12.25 2.91667" stroke="#1B2428" stroke-width="0.875" stroke-linecap="round" stroke-linejoin="round"/>
</svg>
