<svg
  xmlns="http://www.w3.org/2000/svg"
  width="24"
  height="24"
  viewBox="0 0 24 24"
  fill="none"
  stroke="currentColor"
  stroke-width="2"
  stroke-linecap="round"
  stroke-linejoin="round"
  class="lucide lucide-tags h-5 w-5"
  data-lov-id="src/pages/Marcas.tsx:138:12"
  data-lov-name="Tags"
  data-component-path="src/pages/Marcas.tsx"
  data-component-line="138"
  data-component-file="Marcas.tsx"
  data-component-name="Tags"
  data-component-content="%7B%22className%22%3A%22h-5%20w-5%22%7D"
  >
  <path d="m15 5 6.3 6.3a2.4 2.4 0 0 1 0 3.4L17 19"></path>
  <path d="M9.586 5.586A2 2 0 0 0 8.172 5H3a1 1 0 0 0-1 1v5.172a2 2 0 0 0 .586 1.414L8.29 18.29a2.426 2.426 0 0 0 3.42 0l3.58-3.58a2.426 2.426 0 0 0 0-3.42z"></path>
  <circle
    cx="6.5"
    cy="9.5"
    r=".5"
    fill="currentColor"
  ></circle>
</svg>