<svg width="18" height="18" viewBox="0 0 18 18" fill="none" xmlns="http://www.w3.org/2000/svg">
<g clip-path="url(#clip0_55_34)">
<path d="M6 12L12.54 11.4547C14.5867 11.2845 15.0458 10.8375 15.2723 8.79675L15.75 4.5M4.5 4.5H16.5" stroke="#1B2428" stroke-width="1.5" stroke-linecap="round" stroke-linejoin="round"/>
<path d="M4.5 16.5C5.32843 16.5 6 15.8284 6 15C6 14.1716 5.32843 13.5 4.5 13.5C3.67157 13.5 3 14.1716 3 15C3 15.8284 3.67157 16.5 4.5 16.5Z" stroke="#1B2428" stroke-width="1.5" stroke-linecap="round" stroke-linejoin="round"/>
<path d="M12.75 16.5C13.5784 16.5 14.25 15.8284 14.25 15C14.25 14.1716 13.5784 13.5 12.75 13.5C11.9216 13.5 11.25 14.1716 11.25 15C11.25 15.8284 11.9216 16.5 12.75 16.5Z" stroke="#1B2428" stroke-width="1.5" stroke-linecap="round" stroke-linejoin="round"/>
<path d="M6 15H11.25M1.5 1.5H2.2245C2.93325 1.5 3.5505 1.96875 3.72225 2.63625L5.955 11.307C6.01039 11.5238 6.01554 11.7505 5.97005 11.9696C5.92456 12.1888 5.82963 12.3946 5.6925 12.5715L4.97325 13.5" stroke="#1B2428" stroke-width="1.5" stroke-linecap="round" stroke-linejoin="round"/>
</g>
<defs>
<clipPath id="clip0_55_34">
<rect width="18" height="18" fill="white"/>
</clipPath>
</defs>
</svg>
