<svg width="24" height="24" viewBox="0 0 24 24" fill="none" xmlns="http://www.w3.org/2000/svg">
<g clip-path="url(#clip0_55_47)">
<path d="M20 8H17.3333V4.66667C17.3333 4.48986 17.2631 4.32029 17.1381 4.19526C17.013 4.07024 16.8435 4 16.6667 4H2C1.82319 4 1.65362 4.07024 1.52859 4.19526C1.40357 4.32029 1.33333 4.48986 1.33333 4.66667V16.6667C1.33333 16.8435 1.40357 17.013 1.52859 17.1381C1.65362 17.2631 1.82319 17.3333 2 17.3333H2.66667V5.33333H16V13.1333C16.34 13.047 16.6892 13.0022 17.04 13H17.3333V9.33333H20C20.3536 9.33333 20.6928 9.47381 20.9428 9.72386C21.1929 9.97391 21.3333 10.313 21.3333 10.6667V11.3333H18.6667V12.6667H21.3333V16H19.7333C19.4994 15.4567 19.1115 14.9939 18.6174 14.6687C18.1234 14.3434 17.5448 14.1701 16.9533 14.1701C16.3618 14.1701 15.7833 14.3434 15.2892 14.6687C14.7952 14.9939 14.4072 15.4567 14.1733 16H9.62C9.39055 15.4527 9.00396 14.9858 8.50911 14.6583C8.01427 14.3308 7.43341 14.1574 6.84 14.16C6.27618 14.1724 5.72803 14.3479 5.26177 14.6651C4.79551 14.9824 4.4311 15.4279 4.21256 15.9477C3.99402 16.4676 3.93071 17.0397 4.03027 17.5948C4.12983 18.1499 4.388 18.6643 4.7736 19.0758C5.15919 19.4873 5.65571 19.7784 6.20316 19.9138C6.75061 20.0493 7.32557 20.0233 7.85856 19.839C8.39156 19.6547 8.85979 19.32 9.20667 18.8754C9.55356 18.4307 9.76427 17.8951 9.81333 17.3333H14C14.0847 18.0625 14.4344 18.7351 14.9826 19.2233C15.5308 19.7115 16.2393 19.9812 16.9733 19.9812C17.7074 19.9812 18.4159 19.7115 18.9641 19.2233C19.5123 18.7351 19.862 18.0625 19.9467 17.3333H22C22.1768 17.3333 22.3464 17.2631 22.4714 17.1381C22.5964 17.013 22.6667 16.8435 22.6667 16.6667V10.6667C22.6667 9.95942 22.3857 9.28115 21.8856 8.78105C21.3855 8.28095 20.7072 8 20 8ZM6.84 18.6667C6.62343 18.6807 6.40628 18.6502 6.20198 18.577C5.99768 18.5038 5.81056 18.3895 5.65221 18.241C5.49386 18.0926 5.36764 17.9133 5.28135 17.7142C5.19506 17.5151 5.15054 17.3004 5.15054 17.0833C5.15054 16.8663 5.19506 16.6516 5.28135 16.4525C5.36764 16.2533 5.49386 16.074 5.65221 15.9256C5.81056 15.7772 5.99768 15.6629 6.20198 15.5897C6.40628 15.5165 6.62343 15.4859 6.84 15.5C7.05657 15.4859 7.27371 15.5165 7.47802 15.5897C7.68232 15.6629 7.86943 15.7772 8.02778 15.9256C8.18614 16.074 8.31236 16.2533 8.39865 16.4525C8.48494 16.6516 8.52946 16.8663 8.52946 17.0833C8.52946 17.3004 8.48494 17.5151 8.39865 17.7142C8.31236 17.9133 8.18614 18.0926 8.02778 18.241C7.86943 18.3895 7.68232 18.5038 7.47802 18.577C7.27371 18.6502 7.05657 18.6807 6.84 18.6667ZM16.9533 18.6667C16.6431 18.651 16.3443 18.5446 16.094 18.3608C15.8437 18.1769 15.6528 17.9236 15.5451 17.6322C15.4374 17.3409 15.4176 17.0244 15.4881 16.7219C15.5586 16.4194 15.7163 16.1442 15.9417 15.9305C16.1671 15.7168 16.4503 15.574 16.7561 15.5198C17.062 15.4655 17.377 15.5022 17.6622 15.6253C17.9473 15.7484 18.1901 15.9525 18.3604 16.2122C18.5306 16.472 18.6209 16.7761 18.62 17.0867C18.6078 17.517 18.4255 17.9249 18.1131 18.221C17.8007 18.5172 17.3837 18.6774 16.9533 18.6667Z" fill="#F0F2F5"/>
</g>
<defs>
<clipPath id="clip0_55_47">
<rect width="24" height="24" fill="white"/>
</clipPath>
</defs>
</svg>
