<svg width="18" height="18" viewBox="0 0 18 18" fill="none" xmlns="http://www.w3.org/2000/svg">
<path d="M15.75 4.5H12.75C12.1533 4.5 11.581 4.73705 11.159 5.15901C10.7371 5.58097 10.5 6.15326 10.5 6.75C10.5 7.34674 10.7371 7.91903 11.159 8.34099C11.581 8.76295 12.1533 9 12.75 9H13.5C14.0967 9 14.669 9.23705 15.091 9.65901C15.5129 10.081 15.75 10.6533 15.75 11.25C15.75 11.8467 15.5129 12.419 15.091 12.841C14.669 13.2629 14.0967 13.5 13.5 13.5H10.5M3 13.5V4.5H5.25C5.84674 4.5 6.41903 4.73705 6.84099 5.15901C7.26295 5.58097 7.5 6.15326 7.5 6.75C7.5 7.34674 7.26295 7.91903 6.84099 8.34099C6.41903 8.76295 5.84674 9 5.25 9H3C7.125 9 6.75 12 7.5 13.5M13.5 4.5V3M12.75 15V13.5" stroke="#1B2428" stroke-width="2" stroke-linecap="round" stroke-linejoin="round"/>
</svg>
