<svg width="14" height="14" viewBox="0 0 14 14" fill="none" xmlns="http://www.w3.org/2000/svg">
<path d="M4.66667 1.75C4.95833 1.75 6.125 4.375 6.125 4.66667C6.125 5.25 5.25 5.83333 4.95833 6.41667C4.66667 7 5.25 7.58333 5.83333 8.16667C6.06083 8.39417 7 9.33333 7.58333 9.04167C8.16667 8.75 8.75 7.875 9.33333 7.875C9.625 7.875 12.25 9.04167 12.25 9.33333C12.25 10.5 11.375 11.375 10.5 11.6667C9.625 11.9583 9.04167 11.9583 7.875 11.6667C6.70833 11.375 5.83333 11.0833 4.375 9.625C2.91667 8.16667 2.625 7.29167 2.33333 6.125C2.04167 4.95833 2.04167 4.375 2.33333 3.5C2.625 2.625 3.5 1.75 4.66667 1.75Z" stroke="#1B2428" stroke-width="1.16667" stroke-linecap="round" stroke-linejoin="round"/>
</svg>
